<svg xmlns="http://www.w3.org/2000/svg" x="0px" y="0px" width="100" height="100" viewBox="0 0 50 50">
<path fill="#399bdf" d="M5.947,37.326c-0.472-0.176-1.239-0.715-1.283-1.277c-0.04-0.509,0.762-0.93,1.114-1.146 c0.753-0.463,0.577-1.561-0.239-1.828c-0.335-0.11-1.291-0.337-1.308-0.818c-0.011-0.323,0.801-0.732,1.007-0.945 c0.36-0.37,0.409-1.051,0-1.414c-0.332-0.295-0.695-0.538-1.071-0.773c-0.198-0.124-0.721-0.381-0.772-0.658 c-0.069-0.374,0.914-0.719,1.181-0.926c0.427-0.33,0.656-0.86,0.359-1.368c-0.246-0.42-0.938-0.691-1.368-0.359 c-0.953,0.737-2.22,1.136-2.203,2.582c0.008,0.672,0.385,1.333,0.865,1.783c0.207,0.195,0.443,0.35,0.682,0.5 c-0.076,0.072-0.151,0.146-0.217,0.23c-0.402,0.508-0.544,1.144-0.407,1.779c0.153,0.711,0.582,1.208,1.125,1.578 c-0.524,0.581-0.861,1.285-0.708,2.138c0.246,1.376,1.466,2.386,2.712,2.85c0.506,0.189,1.096-0.21,1.23-0.698 C6.8,37.996,6.455,37.515,5.947,37.326z"></path><path fill="#399bdf" d="M6.058,40.91c-0.068-0.052-0.135-0.104-0.202-0.156c-0.156-0.09-0.324-0.136-0.505-0.136 c-0.021,0.002-0.042,0.004-0.064,0.006c-0.138-0.005-0.266,0.023-0.385,0.086c-0.124,0.04-0.231,0.109-0.322,0.207 c-0.098,0.091-0.166,0.198-0.207,0.322c-0.063,0.119-0.091,0.248-0.086,0.385c0.012,0.089,0.024,0.177,0.036,0.266 c0.048,0.169,0.133,0.316,0.257,0.441c0.067,0.052,0.135,0.104,0.202,0.156c0.156,0.09,0.324,0.136,0.505,0.136 c0.021-0.002,0.042-0.004,0.064-0.006c0.138,0.005,0.266-0.024,0.385-0.086c0.124-0.04,0.231-0.109,0.322-0.207 c0.097-0.091,0.166-0.198,0.207-0.322c0.063-0.119,0.091-0.248,0.086-0.385c-0.012-0.089-0.024-0.177-0.036-0.266 C6.268,41.182,6.182,41.035,6.058,40.91z"></path><path fill="#99c93c" d="M47.487,7.283c-0.675-0.013-1.324,0.176-1.946,0.418c-0.563,0.219-1.122,0.461-1.724,0.548 c-0.23,0.033-0.486,0.269-0.598,0.46c-0.125,0.214-0.179,0.53-0.101,0.771c0.078,0.242,0.228,0.475,0.46,0.598 c0.254,0.134,0.489,0.142,0.771,0.101c1.034-0.149,1.932-0.761,2.967-0.907c-0.089,0.012-0.177,0.024-0.266,0.036 c0.146-0.018,0.291-0.026,0.438-0.023c0.523,0.01,1.024-0.467,1-1C48.462,7.733,48.047,7.294,47.487,7.283L47.487,7.283z"></path><path fill="#99c93c" d="M42.868,3.379c-0.03,0.083-0.061,0.165-0.093,0.247c-0.014,0.036-0.029,0.073-0.044,0.109 c-0.045,0.116,0.093-0.212,0.021-0.05c-0.067,0.152-0.137,0.303-0.211,0.452c-0.158,0.315-0.334,0.62-0.528,0.914 c-0.091,0.139-0.187,0.275-0.285,0.409c-0.022,0.03-0.131,0.171-0.028,0.039c0.097-0.124,0.008-0.011-0.012,0.014 c-0.055,0.069-0.111,0.137-0.167,0.204c-0.227,0.269-0.471,0.523-0.728,0.765c-0.382,0.359-0.389,1.057,0,1.414 c0.409,0.376,1.007,0.383,1.414,0c1.173-1.102,2.043-2.477,2.589-3.986c0.178-0.493-0.2-1.117-0.698-1.23 C43.536,2.552,43.059,2.851,42.868,3.379L42.868,3.379z"></path><path fill="#99c93c" d="M39.463,5.93c-0.146-0.906-0.461-1.782-0.891-2.591c-0.246-0.463-0.927-0.643-1.368-0.359 c-0.47,0.303-0.622,0.873-0.359,1.368c0.106,0.199,0.203,0.402,0.291,0.61c-0.034-0.08-0.067-0.159-0.101-0.239 c0.235,0.559,0.402,1.143,0.499,1.742c0.037,0.232,0.266,0.484,0.46,0.598c0.214,0.125,0.53,0.179,0.771,0.101 c0.242-0.078,0.475-0.228,0.598-0.46c0.034-0.08,0.067-0.159,0.101-0.239C39.51,6.285,39.51,6.107,39.463,5.93L39.463,5.93z"></path><path fill="#df4bb1" d="M44.166,19.3c-0.154-2.06-0.402-4.117-0.781-6.148c-0.155-0.831-0.426-1.532-1.197-1.964 c-0.774-0.434-1.72-0.624-2.582-0.789c-0.579-0.11-1.163-0.188-1.748-0.252c-0.055-0.011-0.11-0.022-0.165-0.033 c-2.261-0.433-4.549-0.724-6.844-0.899c-4.676-0.357-9.375-0.233-14.048,0.097c-2.031,0.143-4.127,0.207-6.126,0.614 c-1.607,0.327-3.228,1.077-3.928,2.656c-0.412,0.929-0.467,1.955-0.489,2.957c-0.025,1.138-0.023,2.277,0.001,3.415 c0.049,2.314,0.195,4.626,0.437,6.927c0.481,4.569,1.356,9.087,2.574,13.515c0.034,0.202,0.059,0.406,0.1,0.607 c0.346,1.711,1.015,3.147,2.825,3.619c1.953,0.509,4.055,0.516,6.059,0.606c4.328,0.196,8.665,0.203,12.994,0.022 c2.145-0.09,4.288-0.225,6.427-0.407c1.629-0.138,3.404-0.294,4.593-1.558c1.075-1.143,1.395-2.755,1.546-4.264 c0.198-1.982,0.261-3.987,0.36-5.976C44.386,27.802,44.483,23.541,44.166,19.3z"></path><path fill="#fff" d="M31.612,27.249c-0.342,2.86-2.721,5.295-5.464,5.965c-1.208,0.295-2.555,0.256-3.678-0.32 c-1.312-0.672-2.154-1.945-2.744-3.257c-0.607-1.352-1.016-2.923-0.847-4.414c0.169-1.493,1.09-2.55,2.354-3.287 c1.257-0.733,2.7-1.079,4.15-1.061c0.729,0.009,1.432,0.109,2.134,0.306c0.31,0.087,0.621,0.185,0.919,0.31 c0.154,0.065,0.306,0.14,0.455,0.217c0.001,0.001,0.658,0.36,0.309,0.114c0.634,0.447,1.007,1.035,1.335,1.532 C31.32,24.545,31.734,25.803,31.612,27.249c-0.069,0.808,0.739,1.5,1.5,1.5c0.869,0,1.431-0.689,1.5-1.5 c0.236-2.774-1.174-5.71-3.262-7.521c-1.373-1.192-3.504-1.676-5.268-1.819c-2.042-0.166-4.137,0.279-5.955,1.215 c-1.897,0.976-3.472,2.58-4.021,4.682c-0.524,2.007-0.203,4.2,0.516,6.117c0.744,1.983,1.836,3.838,3.583,5.094 c1.569,1.127,3.579,1.536,5.479,1.308c4.715-0.566,8.367-4.4,8.927-9.074c0.096-0.806-0.758-1.5-1.5-1.5 C32.221,25.749,31.708,26.441,31.612,27.249z"></path><path fill="#fff" d="M34.894,15.053c-0.043,0-0.085,0-0.128,0c-0.207-0.008-0.399,0.035-0.578,0.129 c-0.186,0.06-0.347,0.164-0.483,0.31c-0.146,0.136-0.25,0.297-0.31,0.483c-0.094,0.179-0.137,0.371-0.129,0.578 c0.018,0.133,0.036,0.266,0.054,0.399c0.071,0.254,0.2,0.475,0.386,0.662c0.101,0.078,0.202,0.156,0.304,0.235 c0.234,0.136,0.486,0.204,0.757,0.205c0.043,0,0.085,0,0.128,0c0.207,0.008,0.399-0.035,0.578-0.129 c0.186-0.06,0.347-0.164,0.483-0.31c0.146-0.136,0.25-0.297,0.31-0.483c0.094-0.179,0.137-0.371,0.129-0.578 c-0.018-0.133-0.036-0.266-0.054-0.399c-0.071-0.254-0.2-0.475-0.386-0.662c-0.101-0.078-0.202-0.156-0.304-0.235 C35.417,15.122,35.164,15.054,34.894,15.053L34.894,15.053z"></path><path fill="#231f20" d="M40.666,14.088c-0.775-1.461-2.459-1.424-3.897-1.49c-4.388-0.202-8.785-0.074-13.166,0.213	c-2.236,0.147-4.469,0.335-6.7,0.543c-1.566,0.146-3.151,0.222-4.687,0.567c-0.631,0.172-1.178,0.539-1.523,1.103	c-0.413,0.674-0.36,1.439-0.371,2.198c-0.029,1.927-0.044,3.855-0.017,5.783c0.055,3.807,0.281,7.618,0.896,11.379	c0.249,1.523,0.436,3.233,1.223,4.593c0.77,1.33,2.116,1.884,3.582,2.054c1.816,0.211,3.692,0.165,5.517,0.19	c1.957,0.027,3.915,0.018,5.871-0.055c1.911-0.071,3.821-0.203,5.721-0.422c0.893-0.103,1.784-0.224,2.672-0.366	c0.796-0.127,1.687-0.202,2.402-0.612c1.317-0.757,1.562-2.485,1.79-3.843c0.311-1.854,0.41-3.73,0.543-5.602	c0.275-3.865,0.536-7.732,0.609-11.607C41.159,17.24,41.389,15.45,40.666,14.088z M40.065,21.064	c-0.065,1.771-0.162,3.541-0.274,5.31c-0.11,1.728-0.234,3.455-0.358,5.182c-0.126,1.761-0.26,3.516-0.637,5.245	c-0.129,0.593-0.273,1.243-0.666,1.724c-0.507,0.622-1.39,0.686-2.127,0.811c-1.801,0.305-3.617,0.513-5.439,0.653	c-3.455,0.266-6.924,0.283-10.387,0.209c-1.567-0.034-3.265,0.079-4.802-0.277c-1.588-0.368-2.299-1.52-2.671-3.022	c-0.915-3.691-1.197-7.578-1.337-11.367c-0.071-1.926-0.086-3.853-0.074-5.779c0.006-0.964,0.018-1.928,0.033-2.891	c0.014-0.919,0.147-1.7,1.155-1.976c1.209-0.272,2.444-0.344,3.677-0.461c1.735-0.165,3.472-0.32,5.21-0.454	c3.553-0.274,7.115-0.461,10.68-0.471c1.781-0.005,3.562,0.034,5.341,0.129c0.7,0.037,1.557,0.01,2.1,0.533	c0.488,0.469,0.6,1.223,0.641,1.867C40.238,17.695,40.126,19.398,40.065,21.064z"></path>
</svg>