<svg xmlns="http://www.w3.org/2000/svg" x="0px" y="0px" width="100" height="100" viewBox="0 0 50 50">
<path fill="#df4bb1" d="M32.261,43.694c2.228-0.341,4.516-0.741,6.651-1.481c1.643-0.57,3.221-1.459,4.131-2.978 c0.043-0.057,0.092-0.105,0.133-0.165c1.022-1.494,1.334-3.36,1.505-5.124c0.224-2.313,0.299-4.648,0.298-6.971 c-0.002-4.563-0.413-9.118-1.164-13.618c-0.011-0.152-0.018-0.304-0.03-0.456c-0.054-0.661-0.147-1.343-0.387-1.964 c-0.003-0.014-0.005-0.028-0.007-0.042c-0.006-0.031-0.022-0.05-0.032-0.077c-0.006-0.013-0.011-0.026-0.017-0.039 c-0.017-0.035-0.032-0.071-0.055-0.098c-0.084-0.177-0.174-0.353-0.292-0.514c-0.623-0.854-1.629-1.186-2.628-1.368 c-1.189-0.216-2.396-0.36-3.601-0.453c-0.36-0.028-0.721-0.038-1.082-0.056c-1.572-0.138-3.149-0.221-4.725-0.252 c-5.325-0.108-10.653,0.292-15.957,0.723c-2.123,0.173-4.206,0.584-5.494,2.446c-0.38,0.55-0.637,1.146-0.819,1.766 c-0.729,1.332-1.315,4.534-1.326,4.654c-0.231,2.66,0.081,14.279,0.4,16.421c0.293,1.973,0.647,4.062,1.482,5.889 c0.764,1.67,2.109,2.77,3.845,3.326c1.888,0.605,3.972,0.753,5.938,0.913C23.439,44.533,27.886,44.364,32.261,43.694z"></path><path fill="#99c93c" d="M30.499,1.928c-0.617,0.104-1.194,0.354-1.718,0.693c-0.197-0.438-0.695-0.639-1.157-0.549	c-0.791,0.154-1.522,0.505-2.145,0.996C25.182,2.8,24.812,2.601,24.38,2.535c-0.757-0.114-1.465,0.113-2.106,0.499	c-0.423-0.695-1.302-0.809-2.025-0.564c-1.521,0.515-2.651,2.006-3.056,3.512c-0.334,1.245,1.595,1.775,1.929,0.532	c0.151-0.563,0.413-1.067,0.823-1.487c0.092-0.094,0.202-0.163,0.302-0.243c-0.031,0.132-0.063,0.264-0.094,0.396	c-0.277,1.167,1.165,1.641,1.828,0.771c0.388-0.508,0.909-1.006,1.485-1.291c0.188-0.093,0.55-0.208,0.668-0.15	c0.011,0.013,0.033,0.037,0.056,0.063c-0.021,0.037-0.046,0.071-0.066,0.109c-0.511,0.964,0.779,2.09,1.57,1.212	c0.061-0.067,0.094-0.142,0.143-0.213c0.005,0.003,0.009,0.007,0.014,0.011c0.274-0.517,0.652-0.91,1.103-1.202	c-0.007,0.04-0.003,0.079-0.012,0.12c-0.243,1.108,1.202,1.737,1.828,0.771c0.388-0.599,0.946-1.072,1.601-1.335	c0.024,0.336-0.083,0.748-0.167,0.976c-0.444,1.21,1.488,1.732,1.929,0.532C32.586,4.316,32.398,1.606,30.499,1.928z M24.219,4.606	c0.015,0.021,0.024,0.037,0.015,0.042C24.21,4.662,24.21,4.638,24.219,4.606z"></path><path fill="#fff" d="M18.319,17.372c0.043,0,0.085,0,0.128,0c0.207,0.008,0.399-0.035,0.578-0.129 c0.186-0.06,0.347-0.164,0.483-0.31c0.146-0.136,0.25-0.297,0.31-0.483c0.094-0.179,0.137-0.371,0.129-0.578 c-0.018-0.133-0.036-0.266-0.054-0.399c-0.071-0.254-0.2-0.475-0.386-0.662c-0.101-0.078-0.202-0.156-0.304-0.235 c-0.234-0.136-0.486-0.204-0.757-0.205c-0.043,0-0.085,0-0.128,0c-0.207-0.008-0.399,0.035-0.578,0.129 c-0.186,0.06-0.347,0.164-0.483,0.31c-0.146,0.136-0.25,0.297-0.31,0.483c-0.094,0.179-0.137,0.371-0.129,0.578 c0.018,0.133,0.036,0.266,0.054,0.399c0.071,0.254,0.2,0.475,0.386,0.662c0.101,0.078,0.202,0.156,0.304,0.235 C17.796,17.303,18.048,17.372,18.319,17.372L18.319,17.372z"></path><path fill="#fff" d="M16.82,20.468c0.174,5.068,0.399,10.133,0.677,15.196c0.105,1.92,3.106,1.932,3,0 c-0.277-5.063-0.503-10.129-0.677-15.196C19.754,18.543,16.754,18.534,16.82,20.468L16.82,20.468z"></path><path fill="#fff" d="M24.107,22.768c0.163,4.372,0.374,8.743,0.565,13.114c0.035,0.81,0.664,1.5,1.5,1.5 c0.898,0,1.395-0.693,1.5-1.5c0.021-0.159,0.042-0.319,0.062-0.478c0.105-0.805-0.764-1.5-1.5-1.5c-0.898,0-1.395,0.693-1.5,1.5 c-0.021,0.159-0.042,0.319-0.062,0.478c1,0,2,0,3,0c-0.191-4.371-0.402-8.742-0.565-13.114 C27.035,20.844,24.035,20.834,24.107,22.768L24.107,22.768z"></path><path fill="#fff" d="M27.632,27.745c0.851-0.762,1.912-1.197,3.116-1.462c0.214-0.047,0.477-0.082,0.783-0.046 c0.17,0.02,0.31,0.079,0.43,0.156c0.341,0.217-0.104-0.148,0.189,0.136c0.113,0.109,0.224,0.218,0.325,0.339 c-0.118-0.142,0.065,0.092,0.097,0.141c0.088,0.133,0.169,0.269,0.246,0.409c0.573,1.05,0.833,2.4,0.944,3.546 c0.139,1.442,0.152,2.896,0.2,4.343c0.027,0.81,0.67,1.5,1.5,1.5c0.792,0,1.527-0.687,1.5-1.5 c-0.109-3.301,0.088-7.274-1.983-10.072c-0.567-0.766-1.24-1.372-2.135-1.726c-0.905-0.358-1.863-0.311-2.804-0.135 c-1.682,0.313-3.259,1.113-4.53,2.25c-0.604,0.54-0.55,1.571,0,2.121C26.111,28.345,27.027,28.287,27.632,27.745L27.632,27.745z"></path><path fill="#231f20" d="M10.071,36.524c0.206,1.176,0.935,2.178,1.721,3.043c0.745,0.82,1.769,1.652,2.952,1.513 c0.268-0.032,0.5-0.207,0.5-0.5c0-0.246-0.23-0.532-0.5-0.5c-0.941,0.111-1.697-0.61-2.291-1.272 c-0.659-0.734-1.244-1.559-1.417-2.55c-0.047-0.266-0.373-0.416-0.615-0.349C10.139,35.986,10.024,36.257,10.071,36.524 L10.071,36.524z"></path><path fill="#231f20" d="M37.614,11.452c0.867-0.002,1.667,0.454,2.247,1.109c0.647,0.731,0.983,1.686,1.198,2.623 c0.061,0.263,0.363,0.419,0.615,0.349c0.27-0.074,0.41-0.351,0.349-0.615c-0.26-1.13-0.707-2.246-1.499-3.112 c-0.741-0.812-1.8-1.356-2.911-1.354C36.97,10.454,36.969,11.454,37.614,11.452L37.614,11.452z"></path><path fill="#429ad4" d="M9.788,45.835c2.736,1.029,5.591,1.663,8.501,1.938c0.538,0.051,1-0.496,1-1 c0-0.583-0.46-0.949-1-1c-2.727-0.258-5.407-0.903-7.969-1.866c-0.506-0.19-1.096,0.211-1.23,0.698 C8.935,45.166,9.28,45.645,9.788,45.835L9.788,45.835z"></path><path fill="#429ad4" d="M38.458,45.904c2.144-0.716,4.225-1.627,6.202-2.722c0.458-0.254,0.647-0.921,0.359-1.368 c-0.299-0.464-0.878-0.63-1.368-0.359c-1.901,1.053-3.693,1.842-5.724,2.52c-0.495,0.165-0.871,0.697-0.698,1.23 C37.388,45.698,37.927,46.081,38.458,45.904L38.458,45.904z"></path>
</svg>