<svg width="929.6213867187499px" height="121.39999999999999px" xmlns="http://www.w3.org/2000/svg" viewBox="-214.81069335937497 14.300000000000004 929.6213867187499 121.39999999999999" style="background: rgba(0, 0, 0, 0);" preserveAspectRatio="xMidYMid"><defs><filter id="editing-extrude-glow"><feFlood flood-color="#333333" result="flood-1"></feFlood><feMorphology operator="erode" radius="1" in="SourceAlpha" result="erode"></feMorphology><feComposite operator="in" in="flood-1" in2="erode" result="comp1"></feComposite><feConvolveMatrix order="3,3" divisor="1" in="comp1" result="convolve" kernelMatrix="0 0 0 1 1 1 0 0 0"></feConvolveMatrix><feOffset dx="-3" dy="0" in="convolve" result="extrude"></feOffset><feComposite operator="in" in="flood-1" in2="extrude" result="comp-extrude"></feComposite><feFlood flood-color="#000000" result="flood-2"></feFlood><feComposite operator="in" in="flood-2" in2="SourceAlpha" result="comp2"></feComposite><feMorphology operator="dilate" radius="1" in="comp2" result="dilate"></feMorphology><feOffset dx="-4.5" dy="0" in="dilate" result="offset"></feOffset><feGaussianBlur in="offset" stdDeviation="5.8" result="blur"></feGaussianBlur><feComponentTransfer in="blur" result="shadow"><feFuncA type="linear" slope="0.8" intercept="-0.2"></feFuncA></feComponentTransfer><feMerge><feMergeNode in="shadow"></feMergeNode><feMergeNode in="comp-extrude"></feMergeNode><feMergeNode in="SourceGraphic"></feMergeNode></feMerge></filter></defs><g filter="url(#editing-extrude-glow)"><g transform="translate(-83.5709936618805, 104.79000282287598)"><path d="M47.17 1.28L47.17 1.28L47.17 1.28Q39.42 1.28 39.42-4.74L39.42-4.74L39.42-4.74Q39.42-7.36 40.54-12.45L40.54-12.45L40.54-12.45Q41.66-17.54 42.05-19.58L42.05-19.58L42.05-19.58Q42.94-24.26 42.94-25.73L42.94-25.73L42.94-25.73Q42.94-28.99 40.51-28.99L40.51-28.99L40.51-28.99Q38.91-28.99 37.38-26.78L37.38-26.78L37.38-26.78Q35.84-24.58 35.14-20.16L35.14-20.16L31.17 0L18.69 1.28L22.14-16.13L22.14-16.13Q22.72-19.01 23.23-22.27L23.23-22.27L23.23-22.27Q23.74-25.54 23.74-26.05L23.74-26.05L23.74-26.05Q23.74-28.99 21.57-28.99L21.57-28.99L21.57-28.99Q20.10-28.99 18.50-26.82L18.50-26.82L18.50-26.82Q16.90-24.64 16-20.16L16-20.16L12.10 0L-0.51 1.28L6.21-32.64L16.64-33.92L15.55-27.46L15.55-27.46Q17.22-30.91 20.29-32.42L20.29-32.42L20.29-32.42Q23.36-33.92 28.16-33.92L28.16-33.92L28.16-33.92Q30.91-33.92 32.70-32.58L32.70-32.58L32.70-32.58Q34.50-31.23 35.07-29.06L35.07-29.06L35.07-29.06Q36.16-31.30 38.94-32.61L38.94-32.61L38.94-32.61Q41.73-33.92 45.15-33.92L45.15-33.92L45.15-33.92Q48.58-33.92 50.27-33.18L50.27-33.18L50.27-33.18Q51.97-32.45 52.99-31.23L52.99-31.23L52.99-31.23Q54.72-28.99 54.72-24.90L54.72-24.90L54.72-24.90Q54.72-20.86 52.99-12.48L52.99-12.48L52.99-12.48Q52.10-8.38 52.10-6.88L52.10-6.88L52.10-6.88Q52.10-5.38 52.96-4.48L52.96-4.48L52.96-4.48Q53.82-3.58 55.10-3.46L55.10-3.46L55.10-3.46Q54.46-1.28 52.26 0L52.26 0L52.26 0Q50.05 1.28 47.17 1.28ZM62.82-1.92L62.82-1.92L62.82-1.92Q61.31-3.58 60.64-6.21L60.64-6.21L60.64-6.21Q59.97-8.83 59.97-13.12L59.97-13.12L59.97-13.12Q59.97-17.41 61.44-21.31L61.44-21.31L61.44-21.31Q62.91-25.22 65.60-28.03L65.60-28.03L65.60-28.03Q71.10-33.92 80.19-33.92L80.19-33.92L80.19-33.92Q83.46-33.92 85.82-32.83L85.82-32.83L96.77-33.92L92.03-8.96L92.03-8.96Q91.84-8.19 91.84-6.78L91.84-6.78L91.84-6.78Q91.84-5.38 92.70-4.48L92.70-4.48L92.70-4.48Q93.57-3.58 94.85-3.46L94.85-3.46L94.85-3.46Q94.21-1.28 91.87 0L91.87 0L91.87 0Q89.54 1.28 86.91 1.28L86.91 1.28L86.91 1.28Q84.29 1.28 82.53 0.29L82.53 0.29L82.53 0.29Q80.77-0.70 80.26-2.37L80.26-2.37L80.26-2.37Q79.23-0.77 77.06 0.26L77.06 0.26L77.06 0.26Q74.88 1.28 71.97 1.28L71.97 1.28L71.97 1.28Q69.06 1.28 66.69 0.51L66.69 0.51L66.69 0.51Q64.32-0.26 62.82-1.92ZM76.32-27.90L76.32-27.90L76.32-27.90Q75.58-26.75 74.94-24.80L74.94-24.80L74.94-24.80Q74.30-22.85 73.25-17.63L73.25-17.63L73.25-17.63Q72.19-12.42 72.19-8.70L72.19-8.70L72.19-8.70Q72.19-4.99 72.77-3.90L72.77-3.90L72.77-3.90Q73.34-2.82 74.37-2.82L74.37-2.82L74.37-2.82Q76.42-2.82 77.92-4.77L77.92-4.77L77.92-4.77Q79.42-6.72 80-10.18L80-10.18L83.39-28.93L83.39-28.93Q82.05-30.08 80.48-30.08L80.48-30.08L80.48-30.08Q78.91-30.08 77.98-29.57L77.98-29.57L77.98-29.57Q77.06-29.06 76.32-27.90ZM120.26-17.98L120.26-17.98L120.26-17.98Q122.56-22.08 122.56-26.24L122.56-26.24L122.56-26.24Q122.56-28.99 120.58-28.99L120.58-28.99L120.58-28.99Q119.04-28.99 117.44-26.37L117.44-26.37L117.44-26.37Q115.78-23.74 115.26-20.35L115.26-20.35L111.94 0L98.69 1.28L105.22-32.64L115.78-33.92L114.62-27.46L114.62-27.46Q117.76-33.92 124.80-33.92L124.80-33.92L124.80-33.92Q128.51-33.92 130.53-32L130.53-32L130.53-32Q132.54-30.08 132.54-26.14L132.54-26.14L132.54-26.14Q132.54-22.21 129.95-19.71L129.95-19.71L129.95-19.71Q127.36-17.22 122.94-17.22L122.94-17.22L122.94-17.22Q121.02-17.22 120.26-17.98ZM164.99-26.62L164.99-26.62L164.99-26.62Q164.99-23.94 162.75-22.27L162.75-22.27L162.75-22.27Q160.51-20.61 156.86-20.61L156.86-20.61L156.86-20.61Q155.33-20.61 154.43-21.06L154.43-21.06L154.43-21.06Q155.14-22.72 155.36-24.80L155.36-24.80L155.36-24.80Q155.58-26.88 155.58-27.46L155.58-27.46L155.58-27.46Q155.58-30.14 153.73-30.14L153.73-30.14L153.73-30.14Q152.45-30.14 151.01-28.54L151.01-28.54L151.01-28.54Q149.57-26.94 148.35-24.45L148.35-24.45L148.35-24.45Q145.66-18.69 145.66-12.86L145.66-12.86L145.66-12.86Q145.66-9.66 146.88-8.22L146.88-8.22L146.88-8.22Q148.10-6.78 150.78-6.78L150.78-6.78L150.78-6.78Q154.50-6.78 157.44-9.86L157.44-9.86L157.44-9.86Q158.27-10.82 158.72-11.90L158.72-11.90L158.72-11.90Q161.15-10.62 161.15-7.10L161.15-7.10L161.15-7.10Q161.15-3.52 157.18-1.15L157.18-1.15L157.18-1.15Q153.09 1.28 146.56 1.28L146.56 1.28L146.56 1.28Q133.57 1.28 133.57-12.48L133.57-12.48L133.57-12.48Q133.57-22.53 139.26-28.29L139.26-28.29L139.26-28.29Q144.77-33.92 154.88-33.92L154.88-33.92L154.88-33.92Q164.99-33.92 164.99-26.62ZM187.26-2.69L187.26-2.69L187.26-2.69Q184.19 1.28 176.58 1.28L176.58 1.28L176.58 1.28Q172.61 1.28 169.73-1.12L169.73-1.12L169.73-1.12Q166.85-3.52 166.85-6.98L166.85-6.98L166.85-6.98Q166.85-8.90 167.04-9.86L167.04-9.86L171.33-32.64L184.32-33.92L179.65-9.22L179.65-9.22Q179.39-7.81 179.39-6.98L179.39-6.98L179.39-6.98Q179.39-3.26 181.63-3.26L181.63-3.26L181.63-3.26Q184.13-3.26 185.92-6.66L185.92-6.66L185.92-6.66Q186.50-7.74 186.75-9.15L186.75-9.15L191.30-32.64L203.90-33.92L199.17-8.96L199.17-8.96Q198.98-8 198.98-6.98L198.98-6.98L198.98-6.98Q198.98-5.95 199.55-4.83L199.55-4.83L199.55-4.83Q200.13-3.71 201.98-3.46L201.98-3.46L201.98-3.46Q201.60-1.92 200.26-0.90L200.26-0.90L200.26-0.90Q197.44 1.28 194.40 1.28L194.40 1.28L194.40 1.28Q191.36 1.28 189.57 0.19L189.57 0.19L189.57 0.19Q187.78-0.90 187.26-2.69ZM226.50-22.46L226.50-22.46L226.50-22.46Q227.39-24.83 227.39-26.88L227.39-26.88L227.39-26.88Q227.39-30.66 224.32-30.66L224.32-30.66L224.32-30.66Q222.72-30.66 221.41-29.22L221.41-29.22L221.41-29.22Q220.10-27.78 220.10-25.98L220.10-25.98L220.10-25.98Q220.10-24.70 221.12-23.68L221.12-23.68L221.12-23.68Q222.59-22.27 226.37-19.97L226.37-19.97L226.37-19.97Q230.14-17.66 231.58-15.78L231.58-15.78L231.58-15.78Q233.02-13.89 233.02-11.30L233.02-11.30L233.02-11.30Q233.02-8.70 231.78-6.34L231.78-6.34L231.78-6.34Q230.53-3.97 228.29-2.30L228.29-2.30L228.29-2.30Q223.49 1.28 215.81 1.28L215.81 1.28L215.81 1.28Q211.65 1.28 208.45-0.90L208.45-0.90L208.45-0.90Q205.25-3.01 205.25-5.50L205.25-5.50L205.25-5.50Q205.25-8 207.07-9.47L207.07-9.47L207.07-9.47Q208.90-10.94 211.58-10.94L211.58-10.94L211.58-10.94Q214.27-10.94 215.94-9.92L215.94-9.92L215.94-9.92Q215.10-7.81 215.10-6.40L215.10-6.40L215.10-6.40Q215.10-2.18 218.69-2.18L218.69-2.18L218.69-2.18Q220.22-2.18 221.25-3.14L221.25-3.14L221.25-3.14Q222.27-4.10 222.27-5.76L222.27-5.76L222.27-5.76Q222.27-9.02 216.77-12.48L216.77-12.48L216.77-12.48Q212.29-15.42 211.26-16.58L211.26-16.58L211.26-16.58Q209.54-18.62 209.54-21.18L209.54-21.18L209.54-21.18Q209.54-23.74 210.75-26.18L210.75-26.18L210.75-26.18Q211.97-28.61 214.21-30.34L214.21-30.34L214.21-30.34Q218.88-33.92 227.01-33.92L227.01-33.92L227.01-33.92Q231.17-33.92 233.63-32.26L233.63-32.26L233.63-32.26Q236.10-30.59 236.10-27.78L236.10-27.78L236.10-27.78Q236.10-24.96 234.40-23.36L234.40-23.36L234.40-23.36Q232.70-21.76 229.63-21.76L229.63-21.76L229.63-21.76Q227.52-21.76 226.50-22.46ZM278.72 1.28L278.72 1.28L278.72 1.28Q270.98 1.28 270.98-4.74L270.98-4.74L270.98-4.74Q271.04-6.40 271.55-9.22L271.55-9.22L272.70-15.10L272.70-15.10Q274.43-23.42 274.43-25.28L274.43-25.28L274.43-25.28Q274.43-28.99 272.26-28.99L272.26-28.99L272.26-28.99Q268.61-28.99 266.69-19.46L266.69-19.46L262.91 0L250.05 1.28L256.70-32.70L267.20-33.92L266.18-27.65L266.18-27.65Q269.18-33.92 278.40-33.92L278.40-33.92L278.40-33.92Q282.88-33.92 284.77-32.03L284.77-32.03L284.77-32.03Q286.66-30.14 286.66-25.92L286.66-25.92L286.66-25.92Q286.66-21.95 284.61-12.67L284.61-12.67L284.61-12.67Q283.65-8.51 283.65-6.94L283.65-6.94L283.65-6.94Q283.65-5.38 284.51-4.48L284.51-4.48L284.51-4.48Q285.38-3.58 286.66-3.46L286.66-3.46L286.66-3.46Q286.02-1.28 283.81 0L283.81 0L283.81 0Q281.60 1.28 278.72 1.28ZM307.14-3.52L307.14-3.52L307.14-3.52Q305.15 1.28 298.82 1.28L298.82 1.28L298.82 1.28Q295.55 1.28 293.50-0.96L293.50-0.96L293.50-0.96Q291.78-2.94 291.78-4.93L291.78-4.93L291.78-4.93Q291.78-10.11 294.14-20.22L294.14-20.22L296.51-32.64L309.50-33.92L305.60-13.70L305.60-13.70Q304.51-8.96 304.51-7.30L304.51-7.30L304.51-7.30Q304.51-3.65 307.14-3.52ZM297.66-41.54L297.66-41.54L297.66-41.54Q297.66-44.03 299.74-45.38L299.74-45.38L299.74-45.38Q301.82-46.72 304.83-46.72L304.83-46.72L304.83-46.72Q307.84-46.72 309.66-45.38L309.66-45.38L309.66-45.38Q311.49-44.03 311.49-41.54L311.49-41.54L311.49-41.54Q311.49-39.04 309.47-37.76L309.47-37.76L309.47-37.76Q307.46-36.48 304.45-36.48L304.45-36.48L304.45-36.48Q301.44-36.48 299.55-37.76L299.55-37.76L299.55-37.76Q297.66-39.04 297.66-41.54ZM327.94-3.52L327.94-3.52L327.94-3.52Q325.95 1.28 319.62 1.28L319.62 1.28L319.62 1.28Q316.35 1.28 314.30-0.96L314.30-0.96L314.30-0.96Q312.58-2.94 312.58-4.93L312.58-4.93L312.58-4.93Q312.58-10.11 314.94-20.22L314.94-20.22L317.31-32.64L330.30-33.92L326.40-13.70L326.40-13.70Q325.31-8.96 325.31-7.30L325.31-7.30L325.31-7.30Q325.31-3.65 327.94-3.52ZM318.46-41.54L318.46-41.54L318.46-41.54Q318.46-44.03 320.54-45.38L320.54-45.38L320.54-45.38Q322.62-46.72 325.63-46.72L325.63-46.72L325.63-46.72Q328.64-46.72 330.46-45.38L330.46-45.38L330.46-45.38Q332.29-44.03 332.29-41.54L332.29-41.54L332.29-41.54Q332.29-39.04 330.27-37.76L330.27-37.76L330.27-37.76Q328.26-36.48 325.25-36.48L325.25-36.48L325.25-36.48Q322.24-36.48 320.35-37.76L320.35-37.76L320.35-37.76Q318.46-39.04 318.46-41.54ZM365.57-7.10L365.57-7.10L365.57-7.10Q365.57-4.29 368.45-3.46L368.45-3.46L368.45-3.46Q367.74-1.09 364.99 0.19L364.99 0.19L364.99 0.19Q362.69 1.28 360.16 1.28L360.16 1.28L360.16 1.28Q357.63 1.28 356.32 0.61L356.32 0.61L356.32 0.61Q355.01-0.06 354.30-1.15L354.30-1.15L354.30-1.15Q353.15-2.82 353.15-5.95L353.15-5.95L353.15-5.95Q353.15-7.81 354.18-12.93L354.18-12.93L355.07-17.79L355.07-17.79Q356.16-23.36 356.16-25.41L356.16-25.41L356.16-25.41Q356.16-28.99 354.18-28.99L354.18-28.99L354.18-28.99Q351.68-28.99 350.08-25.34L350.08-25.34L350.08-25.34Q349.44-23.94 348.99-21.82L348.99-21.82L344.64 0L331.78 1.28L340.80-44.80L353.66-46.08L353.15-43.52L353.15-43.52Q351.36-33.66 349.82-30.34L349.82-30.34L349.82-30.34Q353.41-33.92 360-33.92L360-33.92L360-33.92Q366.98-33.92 368.26-29.31L368.26-29.31L368.26-29.31Q368.70-27.84 368.70-26.56L368.70-26.56L368.70-26.56Q368.70-25.28 368.61-24.29L368.61-24.29L368.61-24.29Q368.51-23.30 368.19-21.50L368.19-21.50L367.36-16.90L365.89-9.66L365.89-9.66Q365.57-8.19 365.57-7.10ZM376.42-1.92L376.42-1.92L376.42-1.92Q374.91-3.58 374.24-6.21L374.24-6.21L374.24-6.21Q373.57-8.83 373.57-13.12L373.57-13.12L373.57-13.12Q373.57-17.41 375.04-21.31L375.04-21.31L375.04-21.31Q376.51-25.22 379.20-28.03L379.20-28.03L379.20-28.03Q384.70-33.92 393.79-33.92L393.79-33.92L393.79-33.92Q397.06-33.92 399.42-32.83L399.42-32.83L410.37-33.92L405.63-8.96L405.63-8.96Q405.44-8.19 405.44-6.78L405.44-6.78L405.44-6.78Q405.44-5.38 406.30-4.48L406.30-4.48L406.30-4.48Q407.17-3.58 408.45-3.46L408.45-3.46L408.45-3.46Q407.81-1.28 405.47 0L405.47 0L405.47 0Q403.14 1.28 400.51 1.28L400.51 1.28L400.51 1.28Q397.89 1.28 396.13 0.29L396.13 0.29L396.13 0.29Q394.37-0.70 393.86-2.37L393.86-2.37L393.86-2.37Q392.83-0.77 390.66 0.26L390.66 0.26L390.66 0.26Q388.48 1.28 385.57 1.28L385.57 1.28L385.57 1.28Q382.66 1.28 380.29 0.51L380.29 0.51L380.29 0.51Q377.92-0.26 376.42-1.92ZM389.92-27.90L389.92-27.90L389.92-27.90Q389.18-26.75 388.54-24.80L388.54-24.80L388.54-24.80Q387.90-22.85 386.85-17.63L386.85-17.63L386.85-17.63Q385.79-12.42 385.79-8.70L385.79-8.70L385.79-8.70Q385.79-4.99 386.37-3.90L386.37-3.90L386.37-3.90Q386.94-2.82 387.97-2.82L387.97-2.82L387.97-2.82Q390.02-2.82 391.52-4.77L391.52-4.77L391.52-4.77Q393.02-6.72 393.60-10.18L393.60-10.18L396.99-28.93L396.99-28.93Q395.65-30.08 394.08-30.08L394.08-30.08L394.08-30.08Q392.51-30.08 391.58-29.57L391.58-29.57L391.58-29.57Q390.66-29.06 389.92-27.90ZM434.37-2.69L434.37-2.69L434.37-2.69Q431.30 1.28 423.68 1.28L423.68 1.28L423.68 1.28Q419.71 1.28 416.83-1.12L416.83-1.12L416.83-1.12Q413.95-3.52 413.95-6.98L413.95-6.98L413.95-6.98Q413.95-8.90 414.14-9.86L414.14-9.86L418.43-32.64L431.42-33.92L426.75-9.22L426.75-9.22Q426.50-7.81 426.50-6.98L426.50-6.98L426.50-6.98Q426.50-3.26 428.74-3.26L428.74-3.26L428.74-3.26Q431.23-3.26 433.02-6.66L433.02-6.66L433.02-6.66Q433.60-7.74 433.86-9.15L433.86-9.15L438.40-32.64L451.01-33.92L446.27-8.96L446.27-8.96Q446.08-8 446.08-6.98L446.08-6.98L446.08-6.98Q446.08-5.95 446.66-4.83L446.66-4.83L446.66-4.83Q447.23-3.71 449.09-3.46L449.09-3.46L449.09-3.46Q448.70-1.92 447.36-0.90L447.36-0.90L447.36-0.90Q444.54 1.28 441.50 1.28L441.50 1.28L441.50 1.28Q438.46 1.28 436.67 0.19L436.67 0.19L436.67 0.19Q434.88-0.90 434.37-2.69ZM456.32-10.37L456.32-10.37L456.32-10.37Q454.27-11.84 454.27-14.66L454.27-14.66L454.27-14.66Q454.27-16.19 455.04-17.44L455.04-17.44L455.04-17.44Q455.81-18.69 457.34-18.88L457.34-18.88L469.95-18.88L469.95-18.88Q472.06-18.88 472.70-20.16L472.70-20.16L472.70-20.16Q473.73-19.58 474.18-18.37L474.18-18.37L474.18-18.37Q474.62-17.15 474.62-15.87L474.62-15.87L474.62-15.87Q474.62-14.59 473.63-13.34L473.63-13.34L473.63-13.34Q472.64-12.10 471.17-11.97L471.17-11.97L459.46-11.97L459.46-11.97Q458.11-11.97 457.47-11.55L457.47-11.55L457.47-11.55Q456.83-11.14 456.32-10.37ZM481.82-1.92L481.82-1.92L481.82-1.92Q480.32-3.58 479.65-6.21L479.65-6.21L479.65-6.21Q478.98-8.83 478.98-13.12L478.98-13.12L478.98-13.12Q478.98-17.41 480.45-21.31L480.45-21.31L480.45-21.31Q481.92-25.22 484.61-28.03L484.61-28.03L484.61-28.03Q490.11-33.92 499.20-33.92L499.20-33.92L499.20-33.92Q502.46-33.92 504.83-32.83L504.83-32.83L515.78-33.92L511.04-8.96L511.04-8.96Q510.85-8.19 510.85-6.78L510.85-6.78L510.85-6.78Q510.85-5.38 511.71-4.48L511.71-4.48L511.71-4.48Q512.58-3.58 513.86-3.46L513.86-3.46L513.86-3.46Q513.22-1.28 510.88 0L510.88 0L510.88 0Q508.54 1.28 505.92 1.28L505.92 1.28L505.92 1.28Q503.30 1.28 501.54 0.29L501.54 0.29L501.54 0.29Q499.78-0.70 499.26-2.37L499.26-2.37L499.26-2.37Q498.24-0.77 496.06 0.26L496.06 0.26L496.06 0.26Q493.89 1.28 490.98 1.28L490.98 1.28L490.98 1.28Q488.06 1.28 485.70 0.51L485.70 0.51L485.70 0.51Q483.33-0.26 481.82-1.92ZM495.33-27.90L495.33-27.90L495.33-27.90Q494.59-26.75 493.95-24.80L493.95-24.80L493.95-24.80Q493.31-22.85 492.26-17.63L492.26-17.63L492.26-17.63Q491.20-12.42 491.20-8.70L491.20-8.70L491.20-8.70Q491.20-4.99 491.78-3.90L491.78-3.90L491.78-3.90Q492.35-2.82 493.38-2.82L493.38-2.82L493.38-2.82Q495.42-2.82 496.93-4.77L496.93-4.77L496.93-4.77Q498.43-6.72 499.01-10.18L499.01-10.18L502.40-28.93L502.40-28.93Q501.06-30.08 499.49-30.08L499.49-30.08L499.49-30.08Q497.92-30.08 496.99-29.57L496.99-29.57L496.99-29.57Q496.06-29.06 495.33-27.90ZM538.37-22.46L538.37-22.46L538.37-22.46Q539.26-24.83 539.26-26.88L539.26-26.88L539.26-26.88Q539.26-30.66 536.19-30.66L536.19-30.66L536.19-30.66Q534.59-30.66 533.28-29.22L533.28-29.22L533.28-29.22Q531.97-27.78 531.97-25.98L531.97-25.98L531.97-25.98Q531.97-24.70 532.99-23.68L532.99-23.68L532.99-23.68Q534.46-22.27 538.24-19.97L538.24-19.97L538.24-19.97Q542.02-17.66 543.46-15.78L543.46-15.78L543.46-15.78Q544.90-13.89 544.90-11.30L544.90-11.30L544.90-11.30Q544.90-8.70 543.65-6.34L543.65-6.34L543.65-6.34Q542.40-3.97 540.16-2.30L540.16-2.30L540.16-2.30Q535.36 1.28 527.68 1.28L527.68 1.28L527.68 1.28Q523.52 1.28 520.32-0.90L520.32-0.90L520.32-0.90Q517.12-3.01 517.12-5.50L517.12-5.50L517.12-5.50Q517.12-8 518.94-9.47L518.94-9.47L518.94-9.47Q520.77-10.94 523.46-10.94L523.46-10.94L523.46-10.94Q526.14-10.94 527.81-9.92L527.81-9.92L527.81-9.92Q526.98-7.81 526.98-6.40L526.98-6.40L526.98-6.40Q526.98-2.18 530.56-2.18L530.56-2.18L530.56-2.18Q532.10-2.18 533.12-3.14L533.12-3.14L533.12-3.14Q534.14-4.10 534.14-5.76L534.14-5.76L534.14-5.76Q534.14-9.02 528.64-12.48L528.64-12.48L528.64-12.48Q524.16-15.42 523.14-16.58L523.14-16.58L523.14-16.58Q521.41-18.62 521.41-21.18L521.41-21.18L521.41-21.18Q521.41-23.74 522.62-26.18L522.62-26.18L522.62-26.18Q523.84-28.61 526.08-30.34L526.08-30.34L526.08-30.34Q530.75-33.92 538.88-33.92L538.88-33.92L538.88-33.92Q543.04-33.92 545.50-32.26L545.50-32.26L545.50-32.26Q547.97-30.59 547.97-27.78L547.97-27.78L547.97-27.78Q547.97-24.96 546.27-23.36L546.27-23.36L546.27-23.36Q544.58-21.76 541.50-21.76L541.50-21.76L541.50-21.76Q539.39-21.76 538.37-22.46ZM582.53-7.10L582.53-7.10L582.53-7.10Q582.53-4.29 585.41-3.46L585.41-3.46L585.41-3.46Q584.70-1.09 581.95 0.19L581.95 0.19L581.95 0.19Q579.65 1.28 577.12 1.28L577.12 1.28L577.12 1.28Q574.59 1.28 573.28 0.61L573.28 0.61L573.28 0.61Q571.97-0.06 571.26-1.15L571.26-1.15L571.26-1.15Q570.11-2.82 570.11-5.95L570.11-5.95L570.11-5.95Q570.11-7.81 571.14-12.93L571.14-12.93L572.03-17.79L572.03-17.79Q573.12-23.36 573.12-25.41L573.12-25.41L573.12-25.41Q573.12-28.99 571.14-28.99L571.14-28.99L571.14-28.99Q568.64-28.99 567.04-25.34L567.04-25.34L567.04-25.34Q566.40-23.94 565.95-21.82L565.95-21.82L561.60 0L548.74 1.28L557.76-44.80L570.62-46.08L570.11-43.52L570.11-43.52Q568.32-33.66 566.78-30.34L566.78-30.34L566.78-30.34Q570.37-33.92 576.96-33.92L576.96-33.92L576.96-33.92Q583.94-33.92 585.22-29.31L585.22-29.31L585.22-29.31Q585.66-27.84 585.66-26.56L585.66-26.56L585.66-26.56Q585.66-25.28 585.57-24.29L585.57-24.29L585.57-24.29Q585.47-23.30 585.15-21.50L585.15-21.50L584.32-16.90L582.85-9.66L582.85-9.66Q582.53-8.19 582.53-7.10ZM589.76-3.07L589.76-3.07L597.70-44.80L610.69-46.08L608.70-36.29L608.70-36.29Q608-33.28 607.10-31.17L607.10-31.17L607.10-31.17Q608.51-32.96 611.58-33.66L611.58-33.66L611.58-33.66Q612.48-33.92 613.57-33.92L613.57-33.92L613.57-33.92Q619.52-33.92 622.78-30.30L622.78-30.30L622.78-30.30Q626.05-26.69 626.05-19.71L626.05-19.71L626.05-19.71Q626.05-10.62 620.86-4.93L620.86-4.93L620.86-4.93Q615.30 1.28 605.18 1.28L605.18 1.28L605.18 1.28Q598.21 1.28 592.96-1.02L592.96-1.02L592.96-1.02Q591.10-1.86 589.76-3.07ZM606.02-22.40L602.62-3.65L602.62-3.65Q603.97-2.50 605.63-2.50L605.63-2.50L605.63-2.50Q607.30-2.50 608.26-3.14L608.26-3.14L608.26-3.14Q609.22-3.78 609.92-5.06L609.92-5.06L609.92-5.06Q611.84-8.51 613.38-19.07L613.38-19.07L613.38-19.07Q613.82-22.08 613.82-25.09L613.82-25.09L613.82-25.09Q613.82-28.10 613.15-29.06L613.15-29.06L613.15-29.06Q612.48-30.02 611.20-30.02L611.20-30.02L611.20-30.02Q607.30-30.02 606.02-22.40L606.02-22.40ZM650.24-7.23L650.24-7.23L650.24-7.23Q646.91-3.78 640.83-3.78L640.83-3.78L640.83-3.78Q633.22-3.78 631.62-9.34L631.62-9.34L631.62-9.34Q631.10-11.01 631.10-12.86L631.10-12.86L631.10-12.86Q631.10-14.72 631.49-16.64L631.49-16.64L634.50-32.64L647.49-33.92L643.97-15.30L643.97-15.30Q643.84-14.46 643.65-13.57L643.65-13.57L643.65-13.57Q643.46-12.67 643.46-11.74L643.46-11.74L643.46-11.74Q643.46-10.82 643.78-10.21L643.78-10.21L643.78-10.21Q644.10-9.60 644.54-9.22L644.54-9.22L644.54-9.22Q645.31-8.70 646.69-8.70L646.69-8.70L646.69-8.70Q648.06-8.70 649.25-10.37L649.25-10.37L649.25-10.37Q650.43-12.03 651.01-14.91L651.01-14.91L654.53-32.64L667.14-33.92L662.34-8.77L662.34-8.77Q659.97 3.52 655.10 8.38L655.10 8.38L655.10 8.38Q652.61 10.88 649.38 11.87L649.38 11.87L649.38 11.87Q646.14 12.86 641.98 12.86L641.98 12.86L641.98 12.86Q635.26 12.86 631.42 10.75L631.42 10.75L631.42 10.75Q627.58 8.64 627.58 5.12L627.58 5.12L627.58 5.12Q627.58 2.50 629.57 0.99L629.57 0.99L629.57 0.99Q631.55-0.51 634.62-0.51L634.62-0.51L634.62-0.51Q637.31-0.51 639.36 0.64L639.36 0.64L639.36 0.64Q640.58 1.34 641.15 2.24L641.15 2.24L641.15 2.24Q639.68 3.52 639.68 5.63L639.68 5.63L639.68 5.63Q639.68 8.45 642.24 8.45L642.24 8.45L642.24 8.45Q646.46 8.45 648.90-1.28L648.90-1.28L648.90-1.28Q649.60-4.16 650.24-7.23Z" fill="#eb6c6c"></path></g></g><style>text {
  font-size: 64px;
  font-family: Arial Black;
  dominant-baseline: central;
  text-anchor: middle;
}</style></svg>